<?xml version="1.0" encoding="UTF-8"?>
<svg id="Capa_2" data-name="Capa 2" xmlns="http://www.w3.org/2000/svg" viewBox="0 0 431.78 479.19">
  <defs>
    <style>
      .cls-1, .cls-2, .cls-3 {
        fill: #fff;
      }

      .cls-2 {
        font-family: PlusJakartaSans-ExtraBold, 'Plus Jakarta Sans';
        font-size: 29.03px;
      }

      .cls-2, .cls-3 {
        font-weight: 700;
      }

      .cls-3 {
        font-family: LeagueSpartan-ExtraBold, 'League Spartan';
        font-size: 98.71px;
        font-variation-settings: 'wght' 800;
      }
    </style>
  </defs>
  <g id="Capa_1-2" data-name="Capa 1">
    <path class="cls-1" d="M377.91,216.05c0,89.48-72.54,162.02-162.02,162.02S53.87,305.53,53.87,216.05,126.41,54.04,215.89,54.04s162.02,72.54,162.02,162.02ZM371.87,216.05c0-86.14-69.83-155.98-155.98-155.98S59.91,129.91,59.91,216.05s69.83,155.98,155.98,155.98,155.98-69.83,155.98-155.98Z"/>
    <g>
      <g>
        <path class="cls-1" d="M349.42,234.8c-8.93,28.77-40.04,39.02-67.37,32.4-17.48-4.23-30.89-17.05-35.85-34.28-2.79-9.72-3.34-19.72-1.21-29.61,4.1-19.02,18.15-33.61,37.07-38.34,12.33-3.08,25.27-2.63,37.32,1.5,28.2,9.65,38.41,41.35,30.04,68.32ZM310.51,244.7c6.04-3.29,9.57-8.21,10.57-14.79,1.13-7.44,1.28-14.96.54-22.49-.93-9.56-4.97-18.6-14.27-21.69-5.1-1.7-10.49-1.78-15.75-.63-11.59,2.53-16.67,12.9-17.47,24.4-.48,6.81-.39,13.5.7,20.27.66,4.11,2.18,8.18,5.25,11.06,8.16,7.67,20.55,9.25,30.43,3.87Z"/>
        <path class="cls-1" d="M240.14,244.76c-2.65,7.99-8.17,13.94-15.25,18.03-7.61,4.39-16.05,5.92-24.87,5.48-11.57-.57-21.87-5.12-30.12-13.3l-.1,11.23h-21.68s0-35.61,0-35.61l21.53.04c3.14,7.18,7.97,12.73,14.94,16.05,11.49,5,33.48,3.34,33.45-9.42-.02-9.56-11.51-11.39-20.78-12.44-6.94-.79-13.59-1.4-20.33-3.1-10.27-2.58-18.84-8.47-24.23-17.52-7.82-13.14-.54-27.25,12.51-34.7,15.88-9.08,39.94-7.55,52.45,6.69l.12-10.6h20.81s.04,32.83.04,32.83h-20.49c-1.94-3.46-3.78-6.47-6.28-9.29-5.07-5.85-12.2-8.91-19.99-8.9s-17.37,1.23-17.34,9.22c.03,9.37,9.96,11.7,19.07,12.62,13.44,1.37,27.78,3.65,38.16,12.66,8.64,7.5,12.08,18.85,8.37,30.01Z"/>
        <polygon class="cls-1" points="140.08 266.19 79.55 266.21 79.52 246.22 98.36 246.14 98.36 185.64 79.65 185.63 79.66 165.6 139.96 165.6 139.97 185.63 121.49 185.64 121.49 246.13 140.08 246.17 140.08 266.19"/>
      </g>
      <path class="cls-1" d="M217.87,157.52l-4.03-.03-.08-5.5c-9.32-.22-18.21-1.15-27.3-3.25l-3.51,8.68c-1.43.31-2.71.29-4.3.07l3.75-9.76c-6.47-1.7-12.35-3.9-18.29-6.55-4.54,5.26-8.31,10.57-11.61,16.37-1.68.1-2.93.21-4.49-.11,3.46-6.57,7.59-12.39,12.36-18.07-3.84-2.14-7.05-3.98-10.45-6.38-8.92,7.04-16.67,15.05-23.07,24.41-1.63.32-3.04.38-4.8-.01,6.64-10.22,14.74-19.01,24.1-26.54,40.36-32.48,98.6-32.9,139.02-.48,9.57,7.67,17.7,16.73,24.57,27-1.79.42-3.11.34-4.83.07-6.41-9.36-14.06-17.42-23.25-24.55l-10.51,6.25c5.06,5.88,9.05,11.75,12.63,18.29-1.64.3-3.08.35-4.64-.04-3.39-5.9-7.12-11.22-11.68-16.37-5.97,2.8-11.81,4.81-18.14,6.65l3.78,9.85c-1.5.2-2.78.22-4.27-.08l-3.54-8.78c-9.04,2.06-17.92,3.12-27.3,3.33l-.11,5.55ZM234.61,119.67c4.16-.95,7.79-2.23,10.89-4.97-19.68-5.54-39.77-5.55-59.37.1,3.57,2.8,7.66,4.21,12.05,5.13,11.92,2.48,24.31,2.53,36.43-.25ZM185.5,119.36c-1.48-.99-2.38-1.95-3.48-3.35-10.28,3.41-19.73,8.22-28.59,14.51l9.72,5.77c6.6-6.91,13.93-12.65,22.35-16.93ZM268.44,136.12l9.7-5.79c-8.93-6.27-18.22-10.95-28.37-14.33l-3.47,3.4c8.25,4.23,15.47,9.82,22.13,16.73ZM198.26,124.33c-3.33-.95-5.68-1.57-8.5-2.59-8.66,4.06-16.26,9.51-22.66,16.38,5.78,2.5,11.25,4.53,17.07,5.89,3.7-7.53,8.04-13.94,14.08-19.68ZM264.45,137.84c-6.95-7.14-14.35-12.37-22.68-16.15l-8.36,2.62c6.08,5.71,10.4,12.05,14.06,19.58,5.81-1.44,11.46-3.27,16.98-6.06ZM213.83,125.81c-3.35.11-5.6.02-8.25-.49-1.54-.24-2.83.35-3.89,1.45-5.87,4.95-9.97,11.31-13.53,18.26,8.68,1.93,16.92,2.79,25.71,2.99l-.04-22.21ZM243.46,144.85c-3.67-7.26-7.72-13.27-13.36-18.06-1.11-1.07-2.29-1.74-3.88-1.47-2.75.54-5.34.56-8.38.51v22.19c8.99-.3,17.46-1.1,25.62-3.17Z"/>
      <path class="cls-1" d="M213.91,274.58l4.03.03.08,5.5c9.32.22,18.21,1.15,27.3,3.25l3.51-8.68c1.43-.31,2.71-.29,4.3-.07l-3.75,9.76c6.47,1.7,12.35,3.9,18.29,6.55,4.54-5.26,8.31-10.57,11.61-16.37,1.68-.1,2.93-.21,4.49.11-3.46,6.57-7.59,12.39-12.36,18.07,3.84,2.14,7.05,3.98,10.45,6.38,8.92-7.04,16.67-15.05,23.07-24.41,1.63-.32,3.04-.38,4.8.01-6.64,10.22-14.74,19.01-24.1,26.54-40.36,32.48-98.6,32.9-139.02.48-9.57-7.67-17.7-16.73-24.57-27,1.79-.42,3.11-.34,4.83-.07,6.41,9.36,14.06,17.42,23.25,24.55l10.51-6.25c-5.06-5.88-9.05-11.75-12.63-18.29,1.64-.3,3.08-.35,4.64.04,3.39,5.9,7.12,11.22,11.68,16.37,5.97-2.8,11.81-4.81,18.14-6.65l-3.78-9.85c1.5-.2,2.78-.22,4.27.08l3.54,8.78c9.04-2.06,17.92-3.12,27.3-3.33l.11-5.55ZM197.18,312.44c-4.16.95-7.79,2.23-10.89,4.97,19.68,5.54,39.77,5.55,59.37-.1-3.57-2.8-7.66-4.21-12.05-5.13-11.92-2.48-24.31-2.53-36.43.25ZM246.28,312.75c1.48.99,2.38,1.95,3.48,3.35,10.28-3.41,19.73-8.22,28.59-14.51l-9.72-5.77c-6.6,6.91-13.93,12.65-22.35,16.93ZM163.35,295.99l-9.7,5.79c8.93,6.27,18.22,10.95,28.37,14.33l3.47-3.4c-8.25-4.23-15.47-9.82-22.13-16.73ZM233.52,307.77c3.33.95,5.68,1.57,8.5,2.59,8.66-4.06,16.26-9.51,22.66-16.38-5.78-2.5-11.25-4.53-17.07-5.89-3.7,7.53-8.04,13.94-14.08,19.68ZM167.33,294.27c6.95,7.14,14.35,12.37,22.68,16.15l8.36-2.62c-6.08-5.71-10.4-12.05-14.06-19.58-5.81,1.44-11.46,3.27-16.98,6.06ZM217.95,306.3c3.35-.11,5.6-.02,8.25.49,1.54.24,2.83-.35,3.89-1.45,5.87-4.95,9.97-11.31,13.53-18.26-8.68-1.93-16.92-2.79-25.71-2.99l.04,22.21ZM188.33,287.25c3.67,7.26,7.72,13.27,13.36,18.06,1.11,1.07,2.29,1.74,3.88,1.47,2.75-.54,5.34-.56,8.38-.51v-22.19c-8.99.3-17.46,1.1-25.62,3.17Z"/>
    </g>
    <text class="cls-3" transform="translate(84.34 457.48)"><tspan x="0" y="0">27001</tspan></text>
    <text class="cls-2" transform="translate(25.26 208.65) rotate(-86.58)"><tspan x="0" y="0">I</tspan></text>
    <text class="cls-2" transform="translate(25.58 200.65) rotate(-82.83)"><tspan x="0" y="0">n</tspan></text>
    <text class="cls-2" transform="translate(27.79 183.77) rotate(-78.54)"><tspan x="0" y="0">f</tspan></text>
    <text class="cls-2" transform="translate(29.87 172.71) rotate(-74.08)"><tspan x="0" y="0">o</tspan></text>
    <text class="cls-2" transform="translate(35.07 154.96) rotate(-69.64)"><tspan x="0" y="0">r</tspan></text>
    <text class="cls-2" transform="translate(38.43 144.74) rotate(-64.02)"><tspan x="0" y="0">m</tspan></text>
    <text class="cls-2" transform="translate(50.23 121.09) rotate(-57.58)"><tspan x="0" y="0">a</tspan></text>
    <text class="cls-2" transform="translate(59.01 107.39) rotate(-53.41)"><tspan x="0" y="0">t</tspan></text>
    <text class="cls-2" transform="translate(66.18 97.81) rotate(-50.53)"><tspan x="0" y="0">i</tspan></text>
    <text class="cls-2" transform="translate(70.61 92.11) rotate(-46.69)"><tspan x="0" y="0">o</tspan></text>
    <text class="cls-2" transform="translate(83.29 78.69) rotate(-41.4)"><tspan x="0" y="0">n</tspan></text>
    <text class="cls-2" transform="translate(96.22 67.51) rotate(-38.11)"><tspan x="0" y="0"> </tspan></text>
    <text class="cls-2" transform="translate(99.96 64.3) rotate(-34.61)"><tspan x="0" y="0">S</tspan></text>
    <text class="cls-2" transform="translate(115.04 53.9) rotate(-29.27)"><tspan x="0" y="0">e</tspan></text>
    <text class="cls-2" transform="translate(130.13 45.42) rotate(-24.06)"><tspan x="0" y="0">c</tspan></text>
    <text class="cls-2" transform="translate(145.91 38.36) rotate(-18.88)"><tspan x="0" y="0">u</tspan></text>
    <text class="cls-2" transform="translate(162.06 32.94) rotate(-14.66)"><tspan x="0" y="0">r</tspan></text>
    <text class="cls-2" transform="translate(172.67 30.2) rotate(-11.9)"><tspan x="0" y="0">i</tspan></text>
    <text class="cls-2" transform="translate(179.79 28.64) rotate(-9)"><tspan x="0" y="0">t</tspan></text>
    <text class="cls-2" transform="translate(191.49 26.67) rotate(-4.66)"><tspan x="0" y="0">y</tspan></text>
    <text class="cls-2" transform="translate(208.63 25.44) rotate(-1.37)"><tspan x="0" y="0"> </tspan></text>
    <text class="cls-2" transform="translate(213.48 24.89) rotate(3.2)"><tspan x="0" y="0">M</tspan></text>
    <text class="cls-2" transform="translate(239.36 26.57) rotate(9.53)"><tspan x="0" y="0">a</tspan></text>
    <text class="cls-2" transform="translate(255.61 29.26) rotate(14.57)"><tspan x="0" y="0">n</tspan></text>
    <text class="cls-2" transform="translate(272.03 33.52) rotate(19.64)"><tspan x="0" y="0">a</tspan></text>
    <text class="cls-2" transform="translate(287.56 39) rotate(24.9)"><tspan x="0" y="0">g</tspan></text>
    <text class="cls-2" transform="translate(304.23 46.74) rotate(30.27)"><tspan x="0" y="0">e</tspan></text>
    <text class="cls-2" transform="translate(319.24 55.16) rotate(36.8)"><tspan x="0" y="0">m</tspan></text>
    <text class="cls-2" transform="translate(340.25 71.17) rotate(43.31)"><tspan x="0" y="0">e</tspan></text>
    <text class="cls-2" transform="translate(352.83 83.01) rotate(48.42)"><tspan x="0" y="0">n</tspan></text>
    <text class="cls-2" transform="translate(364.08 95.82) rotate(52.74)"><tspan x="0" y="0">t</tspan></text>
    <text class="cls-2" transform="translate(371.28 105.4) rotate(55.28)"><tspan x="0" y="0"> </tspan></text>
    <text class="cls-2" transform="translate(374.27 109.34) rotate(58.79)"><tspan x="0" y="0">S</tspan></text>
    <text class="cls-2" transform="translate(383.76 125.01) rotate(64.11)"><tspan x="0" y="0">y</tspan></text>
    <text class="cls-2" transform="translate(391.17 140.36) rotate(68.88)"><tspan x="0" y="0">s</tspan></text>
    <text class="cls-2" transform="translate(396.41 154.02) rotate(72.89)"><tspan x="0" y="0">t</tspan></text>
    <text class="cls-2" transform="translate(400.01 165.3) rotate(77.3)"><tspan x="0" y="0">e</tspan></text>
    <text class="cls-2" transform="translate(404.07 182.02) rotate(83.86)"><tspan x="0" y="0">m</tspan></text>
  </g>
</svg>