<?xml version="1.0" encoding="UTF-8"?>
<svg id="Capa_2" data-name="Capa 2" xmlns="http://www.w3.org/2000/svg" xmlns:xlink="http://www.w3.org/1999/xlink" viewBox="0 0 822.58 279.03">
  <defs>
    <style>
      .cls-1 {
        fill: #fff;
      }

      .cls-2 {
        fill: url(#Degradado_sin_nombre_2);
      }

      .cls-3 {
        fill: url(#Degradado_sin_nombre_2-2);
      }
    </style>
    <linearGradient id="Degradado_sin_nombre_2" data-name="Degradado sin nombre 2" x1="28.59" y1="1060.12" x2="257.69" y2="620.62" gradientTransform="translate(0 -790.7)" gradientUnits="userSpaceOnUse">
      <stop offset="0" stop-color="#04aa9a"/>
      <stop offset=".6" stop-color="#0e8cc6"/>
      <stop offset="1" stop-color="#157be0"/>
    </linearGradient>
    <linearGradient id="Degradado_sin_nombre_2-2" data-name="Degradado sin nombre 2" x1="87.9" y1="1091.03" x2="317.1" y2="651.53" xlink:href="#Degradado_sin_nombre_2"/>
  </defs>
  <g id="Capa_1-2" data-name="Capa 1">
    <g>
      <path class="cls-2" d="M86.58,49.62c-1.3-1.4-3.5-1.5-5-.2-14.1,11.8-22.2,23.2-26.8,31-17.8,29.9-12.2,51.4-29.9,82-7.8,13.6-17,23.2-23.7,29.3-1.5,1.4-1.6,3.8-.1,5.3l79.5,80.9c1.4,1.4,3.6,1.5,5,.2,15.8-13.8,24.8-27.2,30.1-36.7,15.6-28.1,13.3-48.6,31.8-90.7,4.3-9.8,8.4-17.7,11.4-23.2.8-1.4.5-3.2-.6-4.3L86.58,49.62Z"/>
      <path class="cls-3" d="M187.28,1.12c-1.3-1.4-3.5-1.5-5-.2-14.1,11.8-22.2,23.2-26.8,31-17.8,29.9-12.2,51.4-29.9,82-7.8,13.6-17,23.2-23.7,29.3-1.5,1.4-1.6,3.8,0,5.3l79.5,80.9c1.4,1.4,3.6,1.5,5,.2,15.8-13.8,24.8-27.2,30.1-36.7,15.6-28.1,13.3-48.6,31.8-90.7,4.3-9.8,8.4-17.7,11.4-23.2.8-1.4.5-3.2-.6-4.3L187.28,1.12Z"/>
    </g>
    <g>
      <path class="cls-1" d="M492.88,70.52v135.3h-20.5l-73.1-96.6.2,43.1v53.5h-22.6V70.52h20.5l73.1,96.6-.2-40.4v-56.2h22.6Z"/>
      <path class="cls-1" d="M612.68,166.12h-76.3c1.7,13.9,9.9,25.1,26.8,25.1s20.9-4,25.8-12.1h21.7c-2.2,12.6-18.8,28.4-44.7,29.4-31.5,1.1-51.8-19.9-51.8-50.4s19.9-49.7,49.5-49.7,52.2,22,49.1,57.8h0l-.1-.1ZM536.58,149.32h55.5c-1.5-13.5-12-22.2-27.8-22.2s-24.9,8.1-27.6,22.2h-.1Z"/>
      <path class="cls-1" d="M715.68,205.82h-25.7l-12.4-18.6-10.2-15.8-10.4,15.8-12.9,18.6h-25.1l34.2-49.3-32.1-46.2h25.7l13.5,19.9,7.2,11.6,7.3-11.6,13.5-19.9h25.3l-32.1,46.2,34.2,49.3Z"/>
      <path class="cls-1" d="M822.58,110.32v95.5h-19.3l-.2-12.8c-7.3,9.3-20.1,14.9-34.8,14.9-28,0-47.4-20.5-47.4-49.9s19.3-49.9,47.4-49.9,27.4,5.6,34.8,14.9l.2-12.8h19.3v.1ZM800.98,158.02c0-17.8-12-30.1-29.2-30.1s-29.2,12.4-29.2,30.1,12,30.2,29.2,30.2,29.2-12.4,29.2-30.2Z"/>
    </g>
  </g>
</svg>