<?xml version="1.0" encoding="UTF-8"?>
<svg id="Capa_2" data-name="Capa 2" xmlns="http://www.w3.org/2000/svg" xmlns:xlink="http://www.w3.org/1999/xlink" viewBox="0 0 1037.61 351.97">
  <defs>
    <style>
      .cls-1 {
        fill: url(#Degradado_sin_nombre_8-2);
      }

      .cls-2 {
        fill: url(#Degradado_sin_nombre_8);
      }
    </style>
    <linearGradient id="Degradado_sin_nombre_8" data-name="Degradado sin nombre 8" x1="36.02" y1="339.91" x2="325.07" y2="-214.52" gradientUnits="userSpaceOnUse">
      <stop offset="0" stop-color="#04aa9a"/>
      <stop offset=".6" stop-color="#0e8cc6"/>
      <stop offset="1" stop-color="#157be0"/>
    </linearGradient>
    <linearGradient id="Degradado_sin_nombre_8-2" data-name="Degradado sin nombre 8" x1="110.75" y1="378.87" x2="399.8" y2="-175.56" xlink:href="#Degradado_sin_nombre_8"/>
  </defs>
  <g id="Capa_1-2" data-name="Capa 1">
    <g>
      <path class="cls-2" d="M109.22,62.63c-1.7-1.74-4.45-1.86-6.31-.3-17.77,14.86-27.96,29.29-33.82,39.1-22.48,37.66-15.41,64.88-37.7,103.39-9.9,17.1-21.46,29.29-29.87,36.99-1.94,1.78-2.02,4.8-.18,6.68l100.33,102.09c1.72,1.75,4.51,1.87,6.35.25,19.89-17.44,31.26-34.31,37.93-46.31,19.69-35.44,16.73-61.36,40.09-114.43,5.43-12.33,10.62-22.37,14.4-29.29.98-1.79.67-4-.75-5.46L109.22,62.63Z"/>
      <path class="cls-1" d="M236.18,1.4c-1.7-1.74-4.45-1.86-6.31-.3-17.77,14.86-27.96,29.29-33.82,39.1-22.48,37.66-15.41,64.88-37.7,103.39-9.9,17.1-21.46,29.29-29.87,36.99-1.94,1.78-2.02,4.8-.18,6.68l100.33,102.09c1.72,1.75,4.51,1.87,6.35.25,19.89-17.44,31.26-34.31,37.93-46.31,19.69-35.44,16.73-61.36,40.09-114.43,5.43-12.33,10.62-22.37,14.4-29.29.98-1.79.67-4-.75-5.46L236.18,1.4Z"/>
    </g>
    <g>
      <path d="M621.68,88.92v170.66h-25.84l-92.16-121.9.24,54.37v67.53h-28.52V88.92h25.84l92.16,121.9-.24-50.95v-70.95h28.52Z"/>
      <path d="M772.84,209.6h-96.3c2.19,17.55,12.55,31.61,33.76,31.61,13.65,0,26.32-5.07,32.55-15.27l27.37-.05c-2.83,15.93-23.67,35.93-56.38,37.11-39.71,1.43-65.34-25.11-65.34-63.63s25.11-62.66,62.41-62.66c42.42,0,65.83,27.79,61.93,72.9ZM676.78,188.39h69.97c-1.95-17.07-15.12-28.04-35.11-28.04s-31.45,10.24-34.86,28.04Z"/>
      <path d="M902.79,259.58h-32.43l-15.6-23.4-12.92-19.99-13.17,19.99-16.33,23.4h-31.69l43.15-62.17-40.47-58.27h32.43l17.07,25.11,9.02,14.63,9.26-14.63,17.07-25.11h31.94l-40.47,58.27,43.15,62.17Z"/>
      <path d="M1037.61,139.14v120.44h-24.38l-.24-16.09c-9.26,11.7-25.36,18.77-43.88,18.77-35.35,0-59.73-25.84-59.73-62.9s24.38-62.9,59.73-62.9c18.77,0,34.62,7.07,43.88,18.77l.24-16.09h24.38ZM1010.31,199.36c0-22.43-15.12-38.03-36.81-38.03s-36.81,15.6-36.81,38.03,15.12,38.03,36.81,38.03,36.81-15.6,36.81-38.03Z"/>
    </g>
  </g>
</svg>