<?xml version="1.0" encoding="UTF-8"?>
<svg id="Capa_2" data-name="Capa 2" xmlns="http://www.w3.org/2000/svg" viewBox="0 0 658.84 251.95">
  <g id="Capa_1-2" data-name="Capa 1">
    <path d="M381.67,158.77l-21.54,6.67c4.44-7.99,8.81-15.25,14.52-22.26l7.01,15.59Z"/>
    <path d="M118.59,104.48c3.29,3.75,3,9.44,1.01,13.82-1.79,3.95-6.36,7.23-11.42,7.3l-11.09.15.02-26.3,10.9.12c3.75.04,7.77,1.7,10.58,4.91Z"/>
    <path d="M248.09,76.71c-37-4.8-80.19,7.79-82.25,49.04-1.23,24.56,12.45,41.8,35.48,49,13.17,4.15,26.65,5.1,40.82,4.17,1.57,7.43,4.58,13.82,9.34,20.86l-165.48,52.16-27.04-73.66,38.9-.13.02-30.06c10.99.22,21.63-.49,32.14-3.52,17.87-5.03,30.34-17.36,27.87-36.33-1.31-10.07-6.72-18.45-15.89-23.18-8.43-4.77-17.8-6.67-27.7-7.36l-54.94-.02-.29,100.59L0,17.61,310.36,0l42.36,94.35-32.79,45.66-.12-62.33h-38.38s0,83.68,0,83.68c-5.32-2.85-10.26-5.81-16.28-6.64.03-1.82.2-2.79-.31-4.58-6.63,3.12-13.46,3.79-20.55,4.87-10.27,1.56-20.49-.53-28.73-6.59-7.82-5.75-10.66-13.86-10.14-23.54.56-10.51,7.51-19.69,17.96-22.93,13.24-4.11,27.02-2.04,39.42,5.3l.09-26.64c-4.7-2.41-9.58-3.3-14.78-3.89ZM323.38,46.03c0-12.58-10.21-22.79-22.81-22.79s-22.81,10.2-22.81,22.79,10.21,22.79,22.81,22.79,22.81-10.2,22.81-22.79Z"/>
    <path d="M283.6,220.21c-11.74-11.54-21.57-24.31-30.19-37.72-1.74-7.57,1.59-13.92,8.78-15.8,2.22-.95,5.18-1.92,7.53-.78,8.4,4.07,14.91,10.28,21.46,16.71l10.04,9.86,12-19.16c19.96-31.87,64.19-114.35,105.34-105.84.74.15,1.45.61,1.71,1.03.28.46.2,1.59-.56,2.13-18.59,13.14-34.27,34.63-46.94,53.9-13.78,20.96-25.72,42.35-38,64.21-5.42,9.63-10.39,18.72-16.53,27.82-6.64,9.86-9.18,10.49-20.84,9.64-5.35-.39-9.66-1.92-13.8-5.99Z"/>
    <path d="M501.26,58.23c5.89,20.02,3.54,45.86-16.93,54.01-5.64,2.25-11.73,2.82-17.82,2.83l-34.38.04V37s41.19.21,41.19.21c13.38.07,23.98,8.48,27.95,21.02ZM478.56,65.05c-2.13-9.8-11.73-11.14-22.33-10.3l-.03,42.42c4.4.33,8.71.16,13.26-.49,11.51-1.66,11.7-19.71,9.11-31.63Z"/>
    <path d="M641.26,113.79c-12.55,4.11-26.67,3.81-38.68-1.04-9.44-3.81-13.85-14-14.73-23.39l23.39-1.52c.08,8.69,6.43,13.84,14.55,13.26,4.39-.32,9-2.48,9.59-7.45.47-3.93-2.8-7.15-6.39-8.15l-18.5-5.14c-6.35-1.77-12.26-5.05-16.11-10.58s-4.46-12.2-1.9-18.93c6.03-15.86,29.04-17.34,45.37-13.81,10.68,2.31,17.77,10.7,18.34,21.92l-22.84,1.2c-.61-6.94-6-10.52-12.56-9.97-2.1.18-4,.39-5.52,1.74-1.27,1.13-2.63,3.53-1.77,5.63,3.15,7.69,35.59,4.83,43.28,22.48,5.78,13.26-.93,28.98-15.51,33.75Z"/>
    <path d="M581.63,91.5c-1.94,24.03-29.35,28.34-51.76,22.96-11.74-2.82-18.04-13.39-19.17-25.24l23.1-1.4c.56,3.66,1.38,7.41,4.32,9.98,4.56,3.98,11.85,4.47,16.81,1.22,2.33-1.53,3.42-4.08,3.3-6.39-.53-9.89-18.6-7.74-32.85-15.77-4.1-2.31-7.99-5.46-9.89-9.88-5.02-11.69,1.18-24.46,13.27-28.74,10.4-3.68,21.75-3.43,32.55-1.09,10.31,2.58,17.02,10.81,17.71,21.81l-22.83,1.16c-.61-6.08-5.08-10.09-10.99-9.88-2.48-.25-4.91.08-6.87,1.49-1.69,1.25-2.46,2.99-2.27,4.89s1.65,3.66,3.87,4.23l13.34,3.39c5.39,1.37,10.46,2.86,15.41,5.21,8.66,4.12,13.74,12.25,12.94,22.06Z"/>
    <g>
      <path d="M447.32,147.43c-.5,2.28-1.77,3.39-3.86,3.39-3.87,0-4.69-4.22-4.69-7.76,0-5.06,1.55-7.62,4.6-7.62,2.19,0,3.5,1.11,3.9,3.3l.04.21h7.88l-.03-.28c-.49-4.33-3.8-8.96-11.62-8.96-9.55,0-12.95,7.03-12.95,13.61,0,8.17,4.83,13.24,12.59,13.24,6.65,0,11.04-3.29,12.05-9.04l.05-.29h-7.92l-.04.2Z"/>
      <path d="M470.91,129.71c-8.08,0-13.31,5.28-13.31,13.44s5.07,13.42,12.93,13.42,13.28-5.28,13.28-13.45-5.06-13.41-12.9-13.41ZM470.76,150.7c-4.12,0-4.98-4.17-4.98-7.66,0-4.95,1.64-7.47,4.89-7.47s4.99,2.49,4.99,7.6-1.65,7.52-4.9,7.52Z"/>
      <path d="M505.37,130.37c-1.26,4.71-2.86,11-3.64,15.27-.65-3.92-1.95-10.5-3.12-15.27l-.05-.19h-11.17v25.91h7.13v-8.34c0-3.42-.08-7.17-.22-10.06.64,3.41,1.46,7.32,2.31,11.41.47,2.26.95,4.54,1.41,6.79l.04.2h6.36l.05-.19c1.64-6.54,3.2-13.35,4.28-18.62-.08,3.06-.14,7.08-.14,10.27v8.54h7.66v-25.91h-10.86l-.05.19Z"/>
      <path d="M533.04,130.18h-12.03v25.91h7.85v-8.92h4c6.18,0,10.01-3.29,10.01-8.59s-3.95-8.4-9.84-8.4ZM528.86,135.91h2.81c1.52,0,3.33.48,3.33,2.77s-1.82,2.75-3.35,2.75h-2.79v-5.52Z"/>
      <polygon points="553.88 130.18 545.91 130.18 545.91 156.09 564.59 156.09 564.61 150.07 553.88 150.07 553.88 130.18"/>
      <rect x="568.27" y="130.18" width="7.97" height="25.91"/>
      <path d="M586.79,130.18l-8.19,25.91h7.78l1.47-4.94h7.6l1.54,4.94h8.3l-8.51-25.91h-10ZM594,145.13h-4.77c1.05-3.75,1.82-6.67,2.32-8.88.56,2.31,1.42,5.41,2.45,8.88Z"/>
      <path d="M623.67,135.84c0,4.36.08,7.6.23,9.83-1.01-2.49-2.88-6.4-4.69-10.19-.85-1.78-1.7-3.55-2.45-5.16l-.07-.14h-9.32v25.91h7.31v-5.96c0-3.72-.01-7.8-.16-10.44,1.31,3.22,4.01,8.94,6.06,13.26.53,1.12,1.01,2.14,1.41,2.99l.07.14h8.9v-25.91h-7.29v5.66Z"/>
      <polygon points="633.73 130.18 633.73 136.2 641 136.2 641 156.09 648.95 156.09 648.95 136.2 656.15 136.2 656.15 130.18 633.73 130.18"/>
    </g>
  </g>
</svg>