<?xml version="1.0" encoding="UTF-8"?>
<svg id="Capa_2" data-name="Capa 2" xmlns="http://www.w3.org/2000/svg" viewBox="0 0 209.59 72.71">
  <defs>
    <style>
      .cls-1 {
        fill: #fff;
      }
    </style>
  </defs>
  <g id="Capa_1-2" data-name="Capa 1">
    <g>
      <path class="cls-1" d="M50.79,63.9l-1.81.36c-.08.02-.16.06-.22.12-.83.74-7.26,6.12-17.91,3.37-11.92-2.48-16.63-12.06-18.23-14.08-.05-.06-.12-.11-.19-.14-5.47-2.19-9.61,3.62-8.52,6.94.02.06.05.12.1.17,7.53,8.18,18.3,12.59,29.4,12.04,11.55-.93,16.29-5.94,17.84-8,.17-.19.16-.48-.03-.66-.12-.11-.28-.15-.44-.11Z"/>
      <path class="cls-1" d="M61.89,54.54l-1.41.22c-.12.02-.23.08-.32.17-.83.89-5.85,5.68-17.32,3.44-12.43-2.43-17.21-12.12-18.67-14.08-.03-.05-.08-.09-.12-.12-3.27-2.39-9.57,2-8.66,6.76.02.1.07.2.14.27,7.19,7.72,17.29,12.08,27.84,12.01,11.65-.32,17.16-5.46,19.05-7.77.19-.24.15-.59-.08-.78-.13-.1-.29-.14-.45-.11h0Z"/>
      <path class="cls-1" d="M76.22,28.88c1.15,3.85.89,7.98-.72,11.66-3.31,6.7-9.86,9.34-17.35,8.87-15.74-1.11-21.54-13.52-22.44-14.75l-.08-.05c-4.14-3.41-11.28,4.42-8.64,7.12,8.21,8.94,20.27,13.31,32.31,11.7,10.55-1.44,16.2-8.34,17.38-11.7,1.61-4.18,1.61-8.81,0-13-.04-.13-.18-.19-.31-.15-.13.04-.19.18-.15.31h0Z"/>
      <path class="cls-1" d="M27.34,8.78l1.54-.3c.1-.02.19-.07.27-.13.89-.83,7.31-6.09,17.89-3.31,11.86,2.48,16.57,11.96,18.23,14.08.06.08.14.14.23.18,5.43,2.15,9.55-3.63,8.48-6.95-.03-.07-.07-.14-.12-.2C66.35,3.95,55.58-.49,44.46.04c-11.17.93-16.01,5.65-17.69,7.86-.19.24-.14.59.1.78.13.1.31.14.47.1h0Z"/>
      <path class="cls-1" d="M15.79,18.22l1.6-.25c.11-.02.21-.08.28-.16.77-.83,5.8-5.71,17.33-3.45,12.49,2.44,17.2,12.19,18.68,14.13.03.04.07.07.11.1,3.31,2.41,9.59-1.99,8.67-6.77-.02-.08-.07-.17-.12-.23-7.18-7.74-17.27-12.11-27.83-12.06-11.92.32-17.4,5.7-19.18,7.93-.16.21-.11.51.1.67.1.08.23.11.36.09h0Z"/>
      <path class="cls-1" d="M19.73,23.32c15.74,1.11,21.54,13.51,22.44,14.75l.08.07c4.14,3.41,11.28-4.42,8.65-7.12-8.22-8.93-20.28-13.29-32.31-11.69C8.03,20.75,2.38,27.66,1.2,31.01c-1.56,4.08-1.6,8.58-.11,12.68.05.14.19.2.33.16.13-.05.2-.19.16-.32-1.05-3.76-.75-7.77.83-11.34,3.33-6.7,9.83-9.33,17.32-8.87h0Z"/>
      <path class="cls-1" d="M99.78,26.55h-12.7v15.19h4.66v-3.82h9.25c3.31,0,4.28-2.6,4.28-4.87v-1.3c0-2.97-1.07-5.2-5.49-5.2h0ZM100.48,32.53c.14.77-.38,1.5-1.15,1.64-.12.02-.24.03-.36.02h-7.24v-3.86h6.85c1.41,0,1.91.59,1.91,1.62v.59Z"/>
      <path class="cls-1" d="M121.84,26.55h-14.08v15.19h4.66v-3.94h7.32c1.45,0,1.91.52,1.91,2.11v1.83h4.66v-2.58c0-2.48-1.15-3.11-2.53-3.31v-.04c2.14-.51,2.6-1.66,2.6-3.74v-1c.03-2.73-.94-4.51-4.52-4.51h0ZM121.84,32.42c0,1.09-.46,1.6-1.72,1.6h-7.7v-3.7h7.28c1.47,0,2.14.25,2.14,1.59v.51h0Z"/>
      <path class="cls-1" d="M136.28,26.55l-8.23,15.19h5.2l1.37-2.68h9.44l1.45,2.68h5.19l-8.35-15.19h-6.06ZM136.36,35.78l2.94-5.7,3.02,5.7h-5.96Z"/>
      <polygon class="cls-1" points="172.93 26.55 166.9 26.55 162.19 31.86 157.47 26.55 151.45 26.55 158.37 34.12 150.92 41.74 157.17 41.74 162.19 36.23 167.2 41.74 173.46 41.74 166.01 34.12 172.93 26.55"/>
      <rect class="cls-1" x="175.43" y="26.55" width="4.66" height="15.18"/>
      <path class="cls-1" d="M193.45,32.3c-4.97,0-5.56,0-5.56-1.34s.71-1.18,1.76-1.18h5.16c2.14,0,2.26.46,2.26,1.57h4.66v-.48c0-2.67-.5-4.49-5.87-4.49h-6.5c-5.87,0-6.12,2.12-6.12,4.87s.83,4.57,7.8,4.57,6.54.08,6.54,1.4-1,1.28-1.99,1.28h-5.71c-1.34,0-2-.12-2.01-1.74h-4.66v1.04c0,3.31,1.66,4.09,5.94,4.09h5.64c6.19,0,7.58-.67,7.58-4.76s-1.68-4.87-8.92-4.85h0,0Z"/>
      <path class="cls-1" d="M207.31,26.84c-1.27,0-2.3,1.01-2.31,2.28s1.01,2.3,2.28,2.31c1.27,0,2.3-1.01,2.31-2.28,0-1.27-1.01-2.3-2.28-2.31ZM207.31,30.98c-1.03,0-1.86-.85-1.85-1.88,0-1.03.85-1.86,1.88-1.85,1.03,0,1.86.85,1.85,1.88,0,1.03-.83,1.86-1.86,1.86h-.06.03s0-.01,0-.01Z"/>
      <path class="cls-1" d="M208.36,28.6c0-.54-.33-.76-.97-.77h-.97v2.6h.44v-1.12h.37l.65,1.13h.5l-.7-1.14c.39-.04.69-.22.69-.7h0ZM206.85,28.95v-.74h.52c.26,0,.55.06.55.37s-.25.39-.56.39l-.51-.02Z"/>
    </g>
  </g>
</svg>