<?xml version="1.0" encoding="UTF-8"?>
<svg id="Capa_2" data-name="Capa 2" xmlns="http://www.w3.org/2000/svg" viewBox="0 0 240.5 83.43">
  <defs>
    <style>
      .cls-1 {
        fill: #e96326;
      }

      .cls-2 {
        fill: #2f3e87;
      }
    </style>
  </defs>
  <g id="Capa_2-2" data-name="Capa 2">
    <g id="Capa_1-2" data-name="Capa 1-2">
      <g>
        <path class="cls-1" d="M58.29,73.32l-2.08.41c-.09.02-.18.07-.26.13-.95.85-8.33,7.02-20.55,3.87-13.68-2.85-19.09-13.84-20.91-16.16-.06-.07-.13-.13-.22-.16-6.27-2.52-11.03,4.16-9.77,7.97.02.07.06.14.11.19,8.64,9.38,21,14.44,33.73,13.81,13.25-1.06,18.7-6.82,20.48-9.18.2-.21.19-.55-.03-.75-.13-.12-.32-.17-.5-.12h0Z"/>
        <path class="cls-1" d="M71.02,62.58l-1.62.25c-.14.02-.26.09-.36.2-.95,1.02-6.71,6.52-19.88,3.95-14.26-2.79-19.74-13.91-21.42-16.16-.04-.05-.09-.1-.14-.14-3.76-2.74-10.98,2.29-9.94,7.76.02.12.08.23.16.31,8.25,8.86,19.84,13.86,31.95,13.78,13.36-.36,19.69-6.26,21.86-8.92.22-.27.18-.67-.09-.89-.14-.11-.33-.16-.51-.13h-.01Z"/>
        <path class="cls-1" d="M87.47,33.14c1.32,4.41,1.02,9.15-.83,13.37-3.8,7.69-11.31,10.71-19.9,10.18-18.06-1.27-24.71-15.51-25.75-16.93l-.09-.06c-4.75-3.92-12.94,5.07-9.91,8.17,9.42,10.26,23.26,15.27,37.07,13.42,12.1-1.65,18.58-9.57,19.94-13.42,1.85-4.8,1.85-10.11,0-14.91-.05-.14-.21-.22-.35-.17-.14.05-.22.21-.17.35h-.01Z"/>
        <path class="cls-2" d="M31.38,10.08l1.77-.34c.11-.02.22-.07.3-.15,1.03-.95,8.38-6.99,20.53-3.8,13.61,2.85,19.01,13.73,20.91,16.16.07.09.16.16.27.21,6.23,2.47,10.96-4.16,9.73-7.98-.03-.08-.07-.16-.13-.23C76.15,4.53,63.78-.56,51.03.05c-12.82,1.06-18.37,6.48-20.29,9.02-.21.28-.16.68.11.89.15.12.35.16.54.11h-.01Z"/>
        <path class="cls-2" d="M18.12,20.9l1.83-.28c.12-.02.24-.09.32-.18.88-.95,6.65-6.55,19.89-3.96,14.33,2.8,19.73,13.99,21.43,16.22.03.04.07.08.12.11,3.8,2.77,11.01-2.28,9.95-7.77-.02-.1-.07-.19-.14-.27-8.24-8.88-19.82-13.9-31.93-13.84-13.68.36-19.96,6.54-22,9.1-.18.24-.13.59.11.77.12.09.26.12.41.1h0Z"/>
        <path class="cls-2" d="M22.65,26.76c18.06,1.27,24.71,15.5,25.75,16.93l.09.08c4.75,3.91,12.94-5.07,9.92-8.18-9.43-10.25-23.27-15.25-37.07-13.41-12.12,1.63-18.6,9.55-19.96,13.39-1.79,4.68-1.84,9.84-.12,14.55.05.15.22.23.37.18s.23-.21.18-.36c-1.2-4.32-.86-8.92.95-13.01,3.82-7.69,11.28-10.7,19.88-10.18h0Z"/>
        <path class="cls-2" d="M114.5,30.47h-14.57v17.43h5.34v-4.38h10.62c3.8,0,4.91-2.99,4.91-5.59v-1.49c0-3.41-1.23-5.97-6.3-5.97h0ZM115.31,37.33c.15.88-.44,1.73-1.32,1.88-.13.02-.27.03-.41.02h-8.31v-4.43h7.86c1.62,0,2.19.67,2.19,1.85v.67h-.01Z"/>
        <path class="cls-2" d="M139.81,30.47h-16.16v17.43h5.34v-4.52h8.4c1.66,0,2.19.6,2.19,2.42v2.1h5.34v-2.97c0-2.85-1.32-3.57-2.91-3.8v-.05c2.45-.58,2.99-1.9,2.99-4.29v-1.15c.04-3.14-1.07-5.18-5.19-5.18h0ZM139.81,37.2c0,1.25-.53,1.83-1.98,1.83h-8.83v-4.24h8.36c1.68,0,2.45.28,2.45,1.82v.58h0Z"/>
        <path class="cls-2" d="M156.38,30.47l-9.44,17.43h5.97l1.57-3.08h10.83l1.66,3.08h5.95l-9.58-17.43s-6.96,0-6.96,0ZM156.47,41.05l3.38-6.54,3.46,6.54h-6.84Z"/>
        <polygon class="cls-2" points="198.43 30.47 191.52 30.47 186.11 36.56 180.69 30.47 173.78 30.47 181.73 39.15 173.18 47.9 180.35 47.9 186.11 41.57 191.86 47.9 199.04 47.9 190.49 39.15 198.43 30.47"/>
        <rect class="cls-2" x="201.3" y="30.47" width="5.34" height="17.42"/>
        <path class="cls-2" d="M221.98,37.06c-5.7,0-6.38,0-6.38-1.54s.82-1.35,2.02-1.35h5.92c2.45,0,2.6.53,2.6,1.81h5.34v-.55c0-3.06-.57-5.15-6.74-5.15h-7.46c-6.74,0-7.02,2.43-7.02,5.59s.95,5.25,8.95,5.25,7.51.09,7.51,1.61-1.15,1.47-2.28,1.47h-6.55c-1.54,0-2.29-.14-2.31-2h-5.35v1.2c0,3.8,1.9,4.69,6.82,4.69h6.47c7.1,0,8.7-.77,8.7-5.47s-1.93-5.59-10.24-5.56h0Z"/>
        <path class="cls-2" d="M237.89,30.8c-1.45,0-2.64,1.16-2.65,2.61s1.16,2.64,2.61,2.65c1.45,0,2.64-1.16,2.65-2.61,0-1.45-1.16-2.64-2.61-2.65ZM237.89,35.55c-1.18,0-2.13-.98-2.12-2.16,0-1.18.98-2.13,2.16-2.12,1.18,0,2.13.98,2.12,2.16,0,1.18-.95,2.13-2.13,2.13h-.07.04s0-.01,0-.01Z"/>
        <path class="cls-2" d="M239.08,32.81c0-.62-.38-.87-1.11-.88h-1.11v2.99h.5v-1.28h.43l.74,1.29h.57l-.81-1.31c.45-.05.79-.25.79-.8h0ZM237.36,33.22v-.85h.6c.29,0,.63.07.63.43s-.28.45-.64.45l-.59-.02h0Z"/>
      </g>
    </g>
  </g>
</svg>