<?xml version="1.0" encoding="UTF-8"?>
<svg id="Capa_2" data-name="Capa 2" xmlns="http://www.w3.org/2000/svg" xmlns:xlink="http://www.w3.org/1999/xlink" viewBox="0 0 639.5 323.77">
  <defs>
    <style>
      .cls-1 {
        fill: #fff;
      }

      .cls-2 {
        fill: url(#Degradado_sin_nombre_2);
      }

      .cls-3 {
        fill: url(#Degradado_sin_nombre);
      }
    </style>
    <linearGradient id="Degradado_sin_nombre" data-name="Degradado sin nombre" x1="235.03" y1="325.29" x2="235.03" y2="106.54" gradientTransform="translate(0 326) scale(1 -1)" gradientUnits="userSpaceOnUse">
      <stop offset="0" stop-color="#f5b5d2"/>
      <stop offset=".02" stop-color="#eeabcc"/>
      <stop offset=".06" stop-color="#dc92be"/>
      <stop offset=".1" stop-color="#bf69a7"/>
      <stop offset=".13" stop-color="#ab4b96"/>
      <stop offset=".2" stop-color="#87367a"/>
      <stop offset=".3" stop-color="#4e154f"/>
      <stop offset=".57" stop-color="#408ec3"/>
      <stop offset=".65" stop-color="#3cb8eb"/>
    </linearGradient>
    <linearGradient id="Degradado_sin_nombre_2" data-name="Degradado sin nombre 2" x1="-45.87" y1="286.41" x2="225.6" y2="-41.97" gradientTransform="translate(0 326) scale(1 -1)" gradientUnits="userSpaceOnUse">
      <stop offset="0" stop-color="#3cb8eb"/>
      <stop offset=".14" stop-color="#3daee4"/>
      <stop offset=".36" stop-color="#4295d1"/>
      <stop offset=".65" stop-color="#4a6bb3"/>
      <stop offset=".99" stop-color="#55328a"/>
      <stop offset=".99" stop-color="#56328a"/>
    </linearGradient>
  </defs>
  <g id="Capa_2-2" data-name="Capa 2">
    <g id="Capa_1-2" data-name="Capa 1-2">
      <path class="cls-1" d="M592.72,45.72c-14.76-14.33-32.01-25.53-51.77-33.61-19.77-8.07-41.2-12.11-64.3-12.11s-44.54,3.97-64.3,11.9c-19.77,7.93-37.02,19.14-51.77,33.61-14.76,14.48-26.17,31.46-34.24,50.94-8.08,19.49-12.11,40.78-12.11,63.88s4.1,44.05,12.32,63.67c8.21,19.62,19.69,36.68,34.45,51.15,14.75,14.48,32.01,25.75,51.77,33.82,19.76,8.07,41.05,12.11,63.88,12.11s44.47-4.04,64.09-12.11c19.62-8.07,36.81-19.34,51.57-33.82,14.75-14.47,26.3-31.52,34.66-51.15,8.35-19.62,12.53-40.85,12.53-63.67s-4.11-44.4-12.32-63.88c-8.21-19.48-19.7-36.39-34.45-50.73h-.01ZM574.55,203.76c-5.15,13.36-12.53,24.91-22.13,34.65-9.6,9.75-20.81,17.33-33.61,22.76-12.81,5.43-26.87,8.14-42.17,8.14s-28.95-2.71-41.75-8.14c-12.81-5.43-24.01-13.01-33.61-22.76-9.6-9.74-17.05-21.29-22.34-34.65-5.29-13.36-7.93-27.83-7.93-43.42s2.64-29.99,7.93-43.21c5.28-13.22,12.73-24.77,22.34-34.66,9.6-9.88,20.8-17.46,33.61-22.76,12.8-5.28,26.72-7.93,41.75-7.93s29.36,2.65,42.17,7.93c12.8,5.29,24.01,12.88,33.61,22.76,9.6,9.88,16.97,21.44,22.13,34.66,5.15,13.22,7.72,27.63,7.72,43.21s-2.58,30.06-7.72,43.42h0Z"/>
      <path class="cls-3" d="M341.02.71h-53.1c-9.08,0-17.56,4.53-22.6,12.08l-18.21,32.09c-3.91,6.93-8.89,9.28-13.37,9.28h-15.18c-9.04,0-17.46,4.56-22.41,12.12l-67.12,99.04,31.97,54.14,75.98-117.45c5.1-7.87,13.89-12.55,23.27-12.39l6.25.12c8.4.16,16.3-3.96,20.99-10.93L341.02.71Z"/>
      <path class="cls-2" d="M314.57,297.81l-104.45-141.46c-.97-1.29-46.16-61.54-47.12-62.81L91.82.71c-.08-.11-.21-.18-.35-.18h-47.58l-22.55-.25,9.39,12.54c.05.06.09.13.13.19l3.32,4.42,99.75,130.91c1.96,2.61,2.08,6.18.31,8.92l-19.47,30.06.15.03s-52.31,84.36-74.11,105.61c-18.24,17.78-32.61,11.19-40.81,7.54,12.64,13.64,26.82,18.07,26.82,18.07h0c.08.03,15.87,6.85,34.25,4.82h.02c21.49-1.4,33.83-8.27,42.62-19.54l63.57-93.76c2.99-4.46,9.49-4.63,12.72-.34l76.62,104.36c1.47,1.96,3.78,3.12,6.24,3.12h47.84l19.5.2-15.62-19.63h-.01Z"/>
    </g>
  </g>
</svg>