<?xml version="1.0" encoding="UTF-8"?>
<svg id="Capa_2" data-name="Capa 2" xmlns="http://www.w3.org/2000/svg" xmlns:xlink="http://www.w3.org/1999/xlink" viewBox="0 0 1594.44 330">
  <defs>
    <style>
      .cls-1 {
        fill: url(#Degradado_sin_nombre_138);
      }

      .cls-2 {
        fill: url(#Degradado_sin_nombre_855);
      }
    </style>
    <linearGradient id="Degradado_sin_nombre_138" data-name="Degradado sin nombre 138" x1="682.28" y1="6.8" x2="682.28" y2="225.55" gradientUnits="userSpaceOnUse">
      <stop offset="0" stop-color="#f5b5d2"/>
      <stop offset=".02" stop-color="#eeabcc"/>
      <stop offset=".06" stop-color="#dc92be"/>
      <stop offset=".1" stop-color="#bf69a7"/>
      <stop offset=".13" stop-color="#ab4b96"/>
      <stop offset=".2" stop-color="#87367a"/>
      <stop offset=".3" stop-color="#4e154f"/>
      <stop offset=".57" stop-color="#408ec3"/>
      <stop offset=".65" stop-color="#3cb8eb"/>
    </linearGradient>
    <linearGradient id="Degradado_sin_nombre_855" data-name="Degradado sin nombre 855" x1="401.38" y1="45.68" x2="672.85" y2="374.06" gradientUnits="userSpaceOnUse">
      <stop offset="0" stop-color="#3cb8eb"/>
      <stop offset=".14" stop-color="#3daee4"/>
      <stop offset=".36" stop-color="#4295d1"/>
      <stop offset=".65" stop-color="#4a6bb3"/>
      <stop offset=".99" stop-color="#55328a"/>
      <stop offset=".99" stop-color="#56328a"/>
    </linearGradient>
  </defs>
  <g id="Capa_1-2" data-name="Capa 1">
    <path d="M1039.97,51.8c-14.76-14.33-32.01-25.53-51.77-33.61-19.77-8.07-41.2-12.11-64.3-12.11s-44.54,3.97-64.3,11.9c-19.77,7.93-37.02,19.14-51.77,33.61-14.76,14.48-26.17,31.46-34.24,50.94-8.08,19.49-12.11,40.78-12.11,63.88s4.1,44.05,12.32,63.67c8.21,19.62,19.69,36.68,34.45,51.15,14.75,14.48,32.01,25.75,51.77,33.82,19.76,8.07,41.05,12.11,63.88,12.11s44.47-4.04,64.09-12.11c19.62-8.07,36.81-19.34,51.57-33.82,14.75-14.47,26.3-31.52,34.66-51.15,8.35-19.62,12.53-40.85,12.53-63.67s-4.11-44.4-12.32-63.88c-8.21-19.48-19.7-36.39-34.45-50.73ZM1021.81,209.84c-5.15,13.36-12.53,24.91-22.13,34.65-9.6,9.75-20.81,17.33-33.61,22.76-12.81,5.43-26.87,8.14-42.17,8.14s-28.95-2.71-41.75-8.14c-12.81-5.43-24.01-13.01-33.61-22.76-9.6-9.74-17.05-21.29-22.34-34.65-5.29-13.36-7.93-27.83-7.93-43.42s2.64-29.99,7.93-43.21c5.28-13.22,12.73-24.77,22.34-34.66,9.6-9.88,20.8-17.46,33.61-22.76,12.8-5.28,26.72-7.93,41.75-7.93s29.36,2.65,42.17,7.93c12.8,5.29,24.01,12.88,33.61,22.76,9.6,9.88,16.97,21.44,22.13,34.66,5.15,13.22,7.72,27.63,7.72,43.21s-2.58,30.06-7.72,43.42Z"/>
    <path d="M1292.78,100.87c-12.94-7.24-27.77-10.86-44.47-10.86s-30.27,3.55-42.38,10.65c-9.34,5.47-16.42,16.53-21.92,26.99v-32.63h-51.36v227.14h54.7v-133.19c0-10.02,1.94-18.65,5.85-25.89,3.89-7.24,9.32-12.87,16.28-16.91,6.95-4.03,14.89-6.05,23.8-6.05s17.18,2.02,24.01,6.05c6.82,4.04,12.17,9.67,16.07,16.91,3.9,7.24,5.85,15.87,5.85,25.89v133.19h54.7v-146.14c0-16.98-3.62-31.94-10.86-44.88-7.24-12.94-17.33-23.03-30.27-30.27Z"/>
    <path d="M1586.93,158.28c-5.01-13.22-12.25-24.98-21.71-35.28-9.47-10.29-20.95-18.37-34.45-24.22-13.5-5.85-29.16-8.77-46.97-8.77-21.16,0-40.29,5.15-57.41,15.45-17.12,10.3-30.62,24.29-40.5,41.96-9.88,17.68-14.82,37.93-14.82,60.75s4.87,42.03,14.61,60.12c9.74,18.1,23.38,32.43,40.92,43.01,17.54,10.58,38,15.87,61.38,15.87,15.59,0,29.85-2.37,42.8-7.1,12.94-4.73,24.14-11.27,33.61-19.62,9.46-8.35,16.42-17.95,20.88-28.81l-44.26-21.71c-5.01,8.91-11.9,16.01-20.67,21.29-8.77,5.29-19.42,7.93-31.94,7.93s-23.59-2.92-33.19-8.77c-9.6-5.85-16.84-14.12-21.71-24.84-2.99-6.56-4.84-13.73-5.58-21.5h163.62c1.11-3.06,1.88-6.68,2.3-10.86.42-4.17.63-8.21.63-12.11,0-15.3-2.5-29.57-7.51-42.8ZM1453.32,143.66c8.91-5.7,19.06-8.56,30.48-8.56s22.19,2.92,30.69,8.77c8.49,5.85,14.61,13.78,18.37,23.8,1.72,4.58,2.77,9.45,3.18,14.61h-106.98c.92-4.85,2.25-9.38,4-13.57,4.59-10.99,11.34-19.34,20.25-25.05Z"/>
    <g>
      <g>
        <rect x="176.27" y="6.73" width="56.05" height="317.18"/>
        <path d="M59.05,21.99c-17.74,16.53-26.6,36.85-26.6,77.64v2.25H0v55.9h45.36l-1.93.9c-6.69,3.11-10.98,9.82-10.98,17.2v146.34h58.15v-164.43h47.78v-55.9h-47.78v-2.25c0-27.95,15.93-45.79,47.78-43.38V.35c-35.16-2.1-61.61,5.11-79.34,21.64Z"/>
        <path d="M511.26,270.23c-3.72,3.72-10.91,4.56-17.1,2-6.53-2.7-10.33-8.47-11.14-16.76V106.66h-56.05v117.31c0,17.96-4.34,31.43-13.03,40.41-8.69,8.98-20.28,13.47-34.76,13.47-13.03,0-23.46-3.84-31.28-11.51-7.82-7.67-11.73-18.75-11.73-33.24v-126.44h-56.05v133.39c0,28.1,7.75,50.12,23.25,66.04,15.49,15.93,35.12,23.9,58.87,23.9,29.55,0,47.31-11.56,60.93-31.84,3.61-5.45,6.04-11.9,8.12-18.16,2.14,6.19,5.01,12.02,8.58,17.34,8.03,11.95,19.38,21.2,32.81,26.77,9.27,3.84,19.05,5.7,28.69,5.7,18.56,0,36.63-6.9,49.6-19.87l-39.7-39.7Z"/>
      </g>
      <path class="cls-1" d="M788.28,6.8h-53.1c-9.08,0-17.56,4.53-22.6,12.08l-18.21,32.09c-3.91,6.93-8.89,9.28-13.37,9.28h-15.18c-9.04,0-17.46,4.56-22.41,12.12l-67.12,99.04,31.97,54.14,75.98-117.45c5.1-7.87,13.89-12.55,23.27-12.39l6.25.12c8.4.16,16.3-3.96,20.99-10.93l53.55-78.09Z"/>
      <path class="cls-2" d="M761.82,303.89l-104.45-141.46c-.97-1.29-46.16-61.54-47.12-62.81L539.07,6.79c-.08-.11-.21-.18-.35-.18h-47.58l-22.55-.25,9.39,12.54c.05.06.09.13.13.19l3.32,4.42,99.75,130.91c1.96,2.61,2.08,6.18.31,8.92l-19.47,30.06.15.03s-52.31,84.36-74.11,105.61c-18.24,17.78-32.61,11.19-40.81,7.54,12.64,13.64,26.82,18.07,26.82,18.07h0c.08.03,15.87,6.85,34.25,4.82,0,0,.01,0,.02,0,21.49-1.4,33.83-8.27,42.62-19.54l63.57-93.76c2.99-4.46,9.49-4.63,12.72-.34l76.62,104.36c1.47,1.96,3.78,3.12,6.24,3.12h47.84l19.5.2-15.62-19.63Z"/>
    </g>
  </g>
</svg>