<svg width="32" height="32" viewBox="0 0 32 32" fill="none" xmlns="http://www.w3.org/2000/svg">
  <defs>
    <linearGradient id="g" x1="0" y1="0" x2="32" y2="32" gradientUnits="userSpaceOnUse">
      <stop offset="0%" stop-color="#3CB8EB"/>
      <stop offset="100%" stop-color="#ab4b96"/>
    </linearGradient>
  </defs>
  <path d="M26.242 5.688A14.862 14.862 0 0015.82 0C7.579 0 .86 6.712.857 14.954c0 2.634.688 5.207 2 7.476L0 32l9.742-2.554a14.896 14.896 0 007.072 1.802h.007c8.238 0 14.957-6.712 14.96-14.958a14.873 14.873 0 00-4.379-10.602zM15.82 27.377h-.005a12.35 12.35 0 01-6.297-1.724l-.452-.268-4.68 1.228 1.25-4.56-.294-.468a12.33 12.33 0 01-1.89-6.631c.002-6.82 5.552-12.37 12.38-12.37 3.305 0 6.411 1.288 8.746 3.626a12.28 12.28 0 013.62 8.756c-.004 6.822-5.554 12.37-12.378 12.377zm6.772-9.274c-.37-.186-2.198-1.084-2.538-1.21-.34-.124-.588-.186-.836.186-.248.372-.96 1.21-1.176 1.458-.216.248-.432.278-.802.092-.37-.185-1.564-.576-2.98-1.838-1.102-.983-1.847-2.198-2.063-2.57-.216-.372-.023-.572.162-.756.166-.165.37-.433.556-.65.185-.216.247-.37.37-.618.124-.247.062-.464-.03-.65-.093-.185-.836-2.015-1.146-2.757-.3-.724-.606-.626-.83-.637a7.2 7.2 0 00-.711-.007c-.247 0-.65.093-.99.464-.34.372-1.3 1.27-1.3 3.1 0 1.828 1.33 3.593 1.516 3.84.185.248 2.617 4.001 6.34 5.614.886.383 1.577.612 2.117.783.89.282 1.7.242 2.337.147.712-.106 2.197-.898 2.507-1.766.31-.867.31-1.61.216-1.766-.093-.155-.34-.247-.71-.433z" fill="url(#g)"/>
</svg>
