<svg width="32" height="32" viewBox="0 0 32 32" fill="none" xmlns="http://www.w3.org/2000/svg">
  <defs>
    <linearGradient id="g" x1="0" y1="0" x2="32" y2="32" gradientUnits="userSpaceOnUse">
      <stop offset="0%" stop-color="#3CB8EB"/>
      <stop offset="100%" stop-color="#ab4b96"/>
    </linearGradient>
  </defs>
  <g transform="scale(1.33333)">
    <!-- Speech bubble (Lucide message-circle) -->
    <path d="M7.9 20A9 9 0 1 0 4 16.1L2 22Z" stroke="url(#g)" stroke-width="1.3125" stroke-linecap="round" stroke-linejoin="round" fill="none"/>
    <!-- Phone handset (Lucide phone) -->
    <path d="M22 16.92v3a2 2 0 0 1-2.18 2 19.79 19.79 0 0 1-8.63-3.07 19.5 19.5 0 0 1-6-6 19.79 19.79 0 0 1-3.07-8.67A2 2 0 0 1 4.11 2h3a2 2 0 0 1 2 1.72 12.84 12.84 0 0 0 .7 2.81 2 2 0 0 1-.45 2.11L8.09 9.91a16 16 0 0 0 6 6l1.27-1.27a2 2 0 0 1 2.11-.45 12.84 12.84 0 0 0 2.81.7A2 2 0 0 1 22 16.92z" stroke="url(#g)" stroke-width="2.98" stroke-linecap="round" stroke-linejoin="round" fill="none" transform="translate(6.7, 6.7) scale(0.44)"/>
  </g>
</svg>
