<svg width="32" height="32" viewBox="0 0 32 32" fill="none" xmlns="http://www.w3.org/2000/svg">
  <defs>
    <linearGradient id="g" x1="0" y1="0" x2="32" y2="32" gradientUnits="userSpaceOnUse">
      <stop offset="0%" stop-color="#3CB8EB"/>
      <stop offset="100%" stop-color="#ab4b96"/>
    </linearGradient>
  </defs>
  <!-- WhatsApp Bubble outline -->
  <path d="M16 27C18.66 27 21.14 26.15 23.2 24.7L28 26L26.7 21.4C28.15 19.34 29 16.86 29 14.2C29 7.46 23.18 2 16 2C8.82 2 3 7.46 3 14.2C3 16.86 3.85 19.34 5.3 21.4L4 26L8.8 24.7C10.86 26.15 13.34 27 16 27Z" stroke="url(#g)" stroke-width="1.75" stroke-linecap="round" stroke-linejoin="round" fill="none"/>
  <!-- Phone receiver inside bubble -->
  <path d="M12.5 13.5c.2-.2.5-.2.7 0l1.5 1.5c.2.2.2.5 0 .7l-.5.5c.6 1.1 1.4 1.9 2.5 2.5l.5-.5c.2-.2.5-.2.7 0l1.5 1.5c.2.2.2.5 0 .7l-.8.8c-.6.6-1.5.6-2.1 0-2.3-2.3-3.1-3.1-3.1-5.1 0-.6.6-1.5 1.2-2.1Z" stroke="url(#g)" stroke-width="1.75" stroke-linecap="round" stroke-linejoin="round" fill="none"/>
</svg>
